<svg version="1.1" id="Layer_1" xmlns="http://www.w3.org/2000/svg" xmlns:xlink="http://www.w3.org/1999/xlink" x="0px" y="0px"
	 width="100%" viewBox="0 0 1710 1710" enable-background="new 0 0 1710 1710" xml:space="preserve">
<path fill="#000000" opacity="1.000000" stroke="none" 
	d="
M1118.000000,1711.000000 
	C745.333435,1711.000000 373.166901,1711.000000 1.000250,1711.000000 
	C1.000166,1141.000244 1.000166,571.000549 1.000083,1.000632 
	C570.999573,1.000421 1140.999146,1.000421 1710.999023,1.000211 
	C1710.999268,570.999390 1710.999268,1140.998779 1710.999634,1710.999023 
	C1513.500000,1711.000000 1316.000000,1711.000000 1118.000000,1711.000000 
M432.939270,715.501099 
	C432.984253,715.671875 433.029266,715.842712 432.972321,716.943604 
	C432.967682,718.936646 432.851410,720.937073 432.981537,722.921265 
	C433.255890,727.105408 433.659241,731.281006 433.850372,735.673584 
	C433.850372,735.673584 433.963959,735.914490 434.005646,736.765869 
	C434.051910,738.179626 434.098206,739.593323 433.988342,741.913574 
	C434.962830,753.209045 435.906830,764.507446 436.989349,775.792542 
	C437.052673,776.452881 438.235565,777.005798 438.937653,778.552673 
	C438.932251,780.717041 438.555847,782.957581 438.981903,785.033447 
	C441.666504,798.113831 443.956055,811.313477 447.455048,824.180359 
	C454.308258,849.381836 463.160950,873.943848 474.607178,897.439636 
	C484.349976,917.438721 495.777527,936.459045 508.526337,954.777649 
	C520.105774,971.415894 533.180359,986.699707 546.903198,1001.472900 
	C553.660645,1008.747375 561.527588,1014.980408 568.461731,1022.104004 
	C579.771301,1033.722412 591.517090,1045.053223 601.615723,1057.675903 
	C612.037598,1070.702515 621.499756,1084.666748 629.919861,1099.075073 
	C637.611450,1112.236938 643.781189,1126.354004 649.840210,1140.387573 
	C658.185852,1159.717407 663.183228,1180.102783 666.410095,1201.015869 
	C666.610352,1201.498657 666.810669,1201.981567 666.849609,1202.687866 
	C666.849609,1202.687866 666.981995,1202.929810 666.981934,1203.827515 
	C667.320312,1206.354492 667.724792,1208.874634 667.985474,1211.409668 
	C669.031311,1221.579956 670.032471,1231.754761 670.881653,1242.227783 
	C670.881653,1242.227783 671.014282,1242.545288 670.448242,1242.958618 
	C670.634277,1243.471191 670.820374,1243.983765 670.847046,1244.720093 
	C670.847046,1244.720093 670.989563,1244.954712 671.034302,1245.898926 
	C671.026367,1262.651001 670.972717,1279.403442 671.090576,1296.154541 
	C671.100891,1297.618042 672.238281,1299.073608 672.884399,1301.352295 
	C674.662048,1312.155884 684.272583,1319.475830 693.455811,1317.992065 
	C709.842590,1315.344360 726.086731,1311.813477 743.133301,1308.713989 
	C747.164246,1307.833740 751.229309,1307.083984 755.218384,1306.042969 
	C761.409241,1304.427490 767.548218,1302.613525 774.578308,1300.923584 
	C799.554749,1295.458618 824.531128,1289.993530 850.250854,1284.621948 
	C859.506226,1282.414307 868.761536,1280.206543 878.846558,1278.009155 
	C879.830566,1277.927002 880.839417,1277.957153 881.794983,1277.745972 
	C899.522217,1273.829346 917.268066,1269.992554 934.958191,1265.913818 
	C952.526794,1261.862915 970.161194,1258.007935 987.526978,1253.201050 
	C997.571228,1250.420654 1002.438354,1241.782715 1005.807373,1232.488403 
	C1006.080566,1231.734741 1005.350281,1230.617432 1005.554077,1229.072510 
	C1006.051270,1226.145142 1006.876221,1223.229004 1006.976135,1220.288208 
	C1007.173340,1214.482300 1006.920532,1208.662720 1006.947693,1202.849243 
	C1006.966064,1198.905640 1007.144348,1194.963013 1007.725647,1190.119263 
	C1013.093567,1142.906494 1030.763062,1100.993652 1061.996582,1064.031006 
	C1037.416748,1068.959961 1013.167236,1072.440430 988.593872,1066.253662 
	C964.153381,1060.100220 942.748352,1048.538452 924.867188,1030.904541 
	C906.923828,1013.209229 894.584717,992.052002 888.187988,967.545959 
	C881.791443,943.040649 882.880676,918.702698 889.307251,895.957092 
	C878.749451,888.694641 868.684753,881.776428 858.625549,874.850403 
	C847.340393,867.080383 840.160461,855.864441 833.428589,844.370056 
	C826.897827,833.219055 824.166565,820.707764 821.367920,807.535889 
	C821.603149,799.767273 821.475708,791.964539 822.203186,784.242310 
	C822.674866,779.235107 821.766113,777.085754 816.822876,776.872742 
	C815.846558,776.259521 814.942383,775.447693 813.883057,775.063110 
	C799.221985,769.739929 786.734863,760.962830 775.238403,750.664856 
	C771.369690,747.199341 767.838379,743.358643 764.123901,739.719055 
	C754.842346,730.624390 747.548706,719.995789 742.378723,708.231140 
	C737.488892,697.103943 734.013123,685.355347 730.015198,673.037109 
	C729.023987,663.426147 727.426880,653.828247 727.217957,644.200317 
	C727.022461,635.186218 728.297668,626.140259 728.993469,616.309875 
	C734.327698,590.668823 745.505310,567.878723 763.121277,547.311218 
	C727.317505,522.851196 704.595642,489.849060 698.138062,446.785095 
	C691.708069,403.905243 703.242981,365.676300 730.839417,330.942291 
	C728.061462,331.135559 726.578613,330.983582 725.255920,331.374115 
	C718.949829,333.235962 712.523743,334.838135 706.441833,337.282867 
	C691.626892,343.238007 676.671265,348.979431 662.348022,355.984009 
	C647.348267,363.319366 632.727051,371.550568 618.492371,380.289368 
	C607.279297,387.173126 596.709961,395.166840 586.221985,403.149994 
	C578.521057,409.011658 571.201965,415.425201 564.103943,422.014313 
	C557.205078,428.418549 550.695435,435.256134 544.215881,442.093933 
	C537.695312,448.975098 531.155212,455.870331 525.123718,463.172394 
	C520.107605,469.245056 515.717896,475.848358 511.228058,482.339294 
	C504.690308,491.790894 497.678467,500.992767 492.018463,510.954346 
	C484.175293,524.758301 477.133942,539.041077 470.254608,553.361511 
	C465.197601,563.888611 460.231720,574.563660 456.526855,585.609375 
	C451.986694,599.145386 448.221008,613.010376 445.196381,626.966309 
	C442.095581,641.273804 440.294067,655.862915 437.082397,670.089172 
	C436.695435,670.473022 435.993866,670.836487 435.967407,671.243774 
	C435.255280,682.199341 434.612396,693.159424 433.846649,704.330505 
	C433.846649,704.330505 434.015930,704.499390 433.310120,705.070496 
	C433.229187,708.375916 433.148254,711.681335 432.939270,715.501099 
M819.908569,300.467468 
	C819.053040,300.389893 818.197449,300.312347 816.534485,300.289276 
	C806.849060,303.405914 797.093933,306.323853 787.495667,309.689026 
	C775.186462,314.004669 764.545776,321.426849 755.174866,330.152679 
	C744.872009,339.746185 735.240417,350.247620 729.602356,363.540894 
	C725.493225,373.229340 721.295410,382.915466 717.928040,392.870148 
	C715.859558,398.985107 715.281494,405.604187 713.175964,412.259308 
	C713.091614,419.992249 712.909912,427.726471 713.012939,435.456940 
	C713.031372,436.841461 714.226440,438.210327 714.946411,440.511108 
	C716.928101,449.638336 718.141052,459.018005 721.039673,467.844116 
	C728.839844,491.595428 743.080688,510.981781 762.939636,526.213135 
	C774.387756,534.993652 787.062622,541.595947 800.719727,545.960205 
	C808.325195,548.390625 816.447449,549.204102 825.182251,550.718079 
	C826.815674,551.151489 828.442200,551.925720 830.083740,551.958923 
	C836.970764,552.098328 843.863831,552.095215 850.750977,551.956238 
	C852.378784,551.923401 853.991943,551.160645 856.483948,550.885498 
	C858.296204,550.828491 860.114624,550.648376 861.919373,550.739685 
	C865.806519,550.936523 869.511658,551.590515 871.212952,555.831787 
	C872.811768,559.817261 871.903870,563.011536 868.000183,564.967896 
	C865.712219,566.114563 863.309570,567.347839 860.830933,567.744202 
	C849.900269,569.491943 839.040344,570.384094 827.818848,569.144104 
	C812.061157,567.402832 796.942261,563.906006 782.513184,557.494080 
	C779.550842,556.177673 777.612610,556.436646 775.594421,558.815735 
	C767.742859,568.071350 760.546997,577.717651 755.778625,589.021667 
	C749.772705,603.259766 744.728882,617.696777 744.046387,633.162415 
	C743.688965,635.553711 742.856750,637.985718 743.057434,640.329224 
	C743.864441,649.755127 744.990906,659.153564 745.836975,668.661438 
	C745.836975,668.661438 745.932129,668.826172 745.938171,669.683533 
	C747.965210,675.854187 749.992188,682.024841 752.225159,688.868164 
	C754.033569,693.273132 755.362366,697.958374 757.741760,702.029663 
	C764.463135,713.530457 772.196228,724.197021 781.831360,733.660095 
	C793.466431,745.087708 806.577942,753.772461 821.543701,759.965393 
	C824.658081,761.254089 826.098206,761.046265 827.432739,757.539734 
	C831.667847,746.411499 837.477112,736.142639 845.234497,726.997559 
	C859.200012,710.533997 876.274719,698.909302 897.123779,692.971497 
	C901.818787,691.634399 906.462830,690.118591 912.051086,688.716858 
	C920.367126,688.819519 928.683228,688.922119 937.285522,689.645142 
	C944.427490,694.725586 944.279480,701.334473 936.758728,704.909851 
	C934.923340,705.782349 932.570374,705.877808 930.467590,705.826538 
	C913.563232,705.414673 897.656006,708.819641 882.695251,716.997437 
	C871.147644,723.309387 861.633972,731.962219 854.156128,742.429871 
	C849.342957,749.167480 846.660583,757.427246 842.261902,765.182922 
	C840.802551,770.857178 838.596252,776.462708 838.065796,782.222473 
	C837.340271,790.098694 837.460754,798.125427 838.072144,806.021545 
	C838.378418,809.977478 840.575073,813.786987 841.937866,818.509766 
	C842.053406,819.653564 841.937134,820.882019 842.319458,821.928406 
	C848.119934,837.803345 856.391479,851.867981 869.893921,862.709656 
	C879.454468,870.386230 889.666565,876.406372 901.462341,879.626953 
	C921.053650,884.975891 940.433350,884.517517 959.472107,877.067322 
	C974.284973,871.270813 986.824341,862.398926 996.337219,849.511902 
	C999.666199,845.002136 1002.728577,840.285217 1006.224121,835.911743 
	C1009.010498,832.425537 1012.741333,832.020935 1016.448914,834.493225 
	C1020.033203,836.883301 1022.373291,840.246826 1020.401550,844.605591 
	C1018.881531,847.965698 1016.844666,851.276306 1014.353149,853.977600 
	C1007.224731,861.706421 1000.086304,869.485474 992.322205,876.553223 
	C982.613831,885.390869 971.594727,892.205933 958.502686,895.227356 
	C954.419373,896.169678 950.560059,898.082642 945.736938,899.548462 
	C943.427979,899.333923 941.106995,898.850464 938.812134,898.952698 
	C930.208496,899.335876 921.613342,899.910400 912.133545,900.149658 
	C910.385559,899.814453 908.637512,899.479187 905.994019,898.972229 
	C904.935486,905.903320 903.910217,912.616577 902.621887,919.377197 
	C902.423340,919.408325 902.295288,919.520203 902.026428,920.233704 
	C902.023010,920.421082 902.019592,920.608459 901.200500,921.194458 
	C901.106018,929.400452 900.993042,937.606384 900.964172,945.812622 
	C900.962524,946.290710 901.642151,946.771179 902.031128,947.815979 
	C902.114563,947.985229 902.197937,948.154541 902.427795,948.474670 
	C902.427795,948.474670 902.827698,948.604126 902.912292,949.533691 
	C904.227356,956.640564 904.658447,964.057678 907.023621,970.795898 
	C914.026001,990.745239 924.584045,1008.331421 940.763855,1022.701782 
	C955.170166,1035.497192 971.841248,1043.199463 989.753235,1048.840210 
	C994.356262,1050.289795 999.461243,1050.145264 1004.540710,1050.711792 
	C1004.540710,1050.711792 1004.729370,1050.795044 1005.189026,1051.012207 
	C1005.358154,1051.001953 1005.527344,1050.991699 1006.133240,1051.790039 
	C1014.351990,1051.886353 1022.570618,1052.000732 1030.789551,1052.031372 
	C1031.257446,1052.033081 1031.727783,1051.348633 1033.054321,1051.022949 
	C1046.535156,1050.700806 1058.973022,1046.204712 1070.909668,1040.614258 
	C1089.183960,1032.055664 1103.935059,1019.055603 1115.920898,1002.805420 
	C1117.240723,1001.016052 1120.101562,999.501770 1122.324341,999.390381 
	C1131.545410,998.928162 1140.989746,1000.222778 1149.997314,998.730591 
	C1171.754761,995.126343 1190.316162,985.111450 1203.737793,967.104370 
	C1214.730591,952.355896 1221.229492,935.702271 1220.862305,917.183105 
	C1220.680542,908.012085 1218.624023,898.824036 1216.842896,889.756165 
	C1215.421631,882.520020 1216.398682,879.350708 1222.953979,876.680359 
	C1236.600342,871.121338 1248.449585,863.589172 1258.046265,851.833679 
	C1270.356689,836.753845 1277.346680,820.316711 1277.431152,800.219543 
	C1277.320435,795.137085 1277.804077,789.949829 1276.932251,785.001465 
	C1276.056396,780.030945 1273.830444,775.298279 1271.979492,769.946289 
	C1271.831299,769.833252 1271.683228,769.720276 1271.510254,769.578796 
	C1271.510254,769.578796 1271.529785,769.545166 1271.635742,768.776855 
	C1268.782837,757.935486 1262.524780,749.091492 1254.752319,741.375793 
	C1248.005493,734.678162 1249.270264,730.115051 1253.890869,723.954834 
	C1263.374268,711.311218 1269.151733,696.979858 1269.854858,681.440674 
	C1271.290527,649.710449 1259.952515,623.765686 1232.696777,605.653503 
	C1220.322388,597.430359 1206.791260,593.209290 1192.272583,591.996338 
	C1171.649536,590.273315 1153.177856,596.263123 1136.276001,608.122070 
	C1127.291260,614.426147 1120.957886,622.842712 1115.665771,632.013733 
	C1111.984131,638.393921 1109.634033,645.565369 1106.920044,652.474060 
	C1104.667114,658.209351 1100.224609,661.573853 1095.862671,660.392090 
	C1091.489990,659.207397 1088.572754,653.743042 1090.365356,648.087585 
	C1092.587646,641.076782 1095.189087,634.070251 1098.605469,627.576782 
	C1106.980347,611.659119 1118.854858,598.835815 1134.295288,589.366516 
	C1146.908081,581.631409 1160.645264,576.942444 1175.134399,574.874817 
	C1185.958496,573.330322 1196.861084,574.342407 1207.597778,576.847412 
	C1214.746826,578.515259 1215.664795,578.024658 1217.008545,570.906799 
	C1223.268799,537.747803 1216.166382,508.923737 1189.157593,486.716766 
	C1179.931030,479.130615 1169.726562,473.514984 1158.036743,470.699066 
	C1152.253174,469.305847 1150.152832,466.491455 1150.042114,460.393341 
	C1149.948364,455.233398 1150.659180,449.945984 1149.775513,444.933258 
	C1146.406982,425.823273 1139.319214,408.771667 1124.456177,395.080688 
	C1110.811768,382.512238 1095.251221,375.120148 1077.159180,373.054596 
	C1068.519775,372.068237 1061.683350,370.115112 1058.892090,360.600555 
	C1057.728516,356.634583 1054.970703,352.947906 1052.305908,349.643829 
	C1041.477539,336.217407 1028.964233,324.787598 1011.941040,319.890778 
	C1004.095642,317.634003 995.906860,316.571014 987.324768,314.355011 
	C981.731445,314.218903 976.015076,313.295319 970.575867,314.145447 
	C963.723511,315.216309 957.097656,317.736053 949.707092,320.023529 
	C944.673035,322.543671 939.552429,324.906921 934.628052,327.625702 
	C929.134705,330.658691 925.655212,331.009247 920.931763,326.797333 
	C912.452820,319.236633 902.488525,314.318542 892.383362,309.608673 
	C881.089844,304.345032 869.314392,300.658661 856.307556,299.326477 
	C853.831238,298.886475 851.275085,297.816467 848.892761,298.118286 
	C839.806824,299.269318 830.452759,295.889191 820.980774,299.997833 
	C820.836548,300.145508 820.692261,300.293152 819.908569,300.467468 
M928.001770,1442.119141 
	C925.347595,1442.397583 922.625000,1442.390869 920.051819,1443.007446 
	C911.823364,1444.978516 903.650269,1447.180420 894.646851,1449.317627 
	C885.652344,1451.172241 876.620239,1452.864136 867.674194,1454.928833 
	C859.232605,1456.876953 850.881531,1459.217285 841.669983,1461.302002 
	C838.996582,1461.516724 836.220581,1461.346924 833.671265,1462.026855 
	C828.473328,1463.413696 823.397400,1465.258301 817.402893,1466.753906 
	C815.937744,1466.976929 814.454529,1467.118164 813.010193,1467.435791 
	C800.447083,1470.199219 787.886902,1472.976807 775.334045,1475.786255 
	C766.703979,1477.717651 758.086853,1479.706787 749.232178,1481.723022 
	C751.375732,1490.216064 752.204102,1498.395752 758.073059,1504.583496 
	C764.531616,1511.393555 771.695862,1516.879395 782.325928,1516.752930 
	C782.814575,1516.831909 783.303162,1516.979614 783.791870,1516.979980 
	C820.971497,1517.006958 858.151062,1517.030640 895.330627,1516.994751 
	C896.333496,1516.993774 897.335632,1516.339722 899.119324,1516.060913 
	C900.268677,1515.996338 901.478210,1516.142334 902.557800,1515.833862 
	C911.043091,1513.408813 917.130676,1507.676636 922.095947,1500.788818 
	C925.140991,1496.564697 928.514282,1492.153198 927.811096,1485.785034 
	C927.905151,1473.471924 927.999268,1461.158691 928.144165,1448.681519 
	C928.144165,1448.681519 928.057434,1448.533447 928.714172,1448.152222 
	C928.497375,1447.596191 928.280579,1447.040283 928.139587,1446.305908 
	C928.139587,1446.305908 928.084045,1446.120361 928.098267,1445.311523 
	C928.025391,1444.510986 927.952576,1443.710449 928.001770,1442.119141 
M786.501404,1395.411743 
	C778.927307,1396.948242 771.353210,1398.484741 763.241211,1399.989136 
	C763.077026,1400.061768 762.912781,1400.134521 762.483765,1400.358521 
	C762.318237,1400.500854 762.236755,1400.681152 761.371704,1400.765503 
	C760.541504,1400.810669 759.685364,1400.739502 758.884827,1400.917969 
	C738.761719,1405.400879 718.644470,1409.910034 698.203918,1414.486816 
	C697.956177,1419.911499 696.654480,1425.544922 697.687866,1430.711182 
	C699.632690,1440.433105 703.422119,1449.763916 711.423218,1456.277222 
	C720.293762,1463.498291 730.513184,1467.121216 742.150940,1465.202881 
	C748.007080,1464.237427 753.873779,1463.257812 759.653687,1461.928101 
	C766.176147,1460.427612 772.606506,1458.526489 779.946045,1456.802124 
	C787.325623,1455.198608 794.705139,1453.595093 802.922485,1451.992065 
	C805.095825,1451.524536 807.269104,1451.056885 810.182312,1450.574951 
	C814.367249,1449.738403 818.585083,1449.038086 822.730103,1448.036255 
	C830.589050,1446.136597 838.406128,1444.063843 847.057861,1442.088501 
	C847.887329,1442.076538 848.749634,1442.210083 849.541504,1442.031494 
	C872.150940,1436.930664 894.753235,1431.798218 918.105408,1426.675415 
	C920.730164,1426.138550 923.373413,1425.678101 925.976074,1425.049683 
	C932.937927,1423.369019 939.882324,1421.616211 947.605164,1419.967163 
	C962.876831,1415.404663 973.950500,1406.170654 978.179871,1390.491455 
	C979.870483,1384.223877 979.766541,1377.423584 980.077759,1370.846680 
	C980.372437,1364.620361 980.141113,1358.369019 980.141113,1351.380981 
	C976.617981,1352.374023 974.141479,1353.205322 971.605225,1353.766724 
	C937.388367,1361.340332 903.167480,1368.895752 868.938538,1376.414429 
	C846.833130,1381.270264 824.692993,1385.969482 802.614014,1390.941895 
	C797.384766,1392.119629 792.338867,1394.111572 786.501404,1395.411743 
M979.713257,1333.361572 
	C979.788635,1314.171997 979.871399,1294.982300 979.902405,1275.792725 
	C979.903320,1275.238159 979.356140,1274.682861 978.133606,1273.990723 
	C976.469482,1274.572144 974.805359,1275.153564 972.444763,1275.424316 
	C964.531616,1276.841064 956.604065,1278.185059 948.719360,1279.745728 
	C947.394165,1280.008179 946.254272,1281.207031 944.219116,1281.596191 
	C928.692566,1284.768921 913.123779,1287.750244 897.648987,1291.158081 
	C873.102356,1296.563965 848.630981,1302.310303 824.104370,1307.808105 
	C804.276245,1312.252441 784.392700,1316.450928 764.580627,1320.964233 
	C759.349731,1322.155762 754.291931,1324.107178 748.442261,1325.454590 
	C741.834045,1326.550415 735.209900,1327.562988 728.631226,1328.814209 
	C727.347656,1329.058350 726.240356,1330.229126 724.229675,1330.589111 
	C715.489441,1332.198242 706.749146,1333.807373 697.388184,1336.104004 
	C697.388184,1356.322510 697.388184,1376.541138 697.388184,1397.291626 
	C698.660889,1396.846191 699.882996,1396.418335 701.929871,1396.021973 
	C702.429443,1396.032959 702.951843,1396.146240 703.425293,1396.040527 
	C734.654846,1389.067139 765.880981,1382.078491 797.106201,1375.085938 
	C835.888184,1366.401245 874.680176,1357.760498 913.446472,1349.006104 
	C935.341675,1344.061646 957.193726,1338.926636 979.713257,1333.361572 
z"/>
<path fill="#29323F" opacity="1.000000" stroke="none" 
	d="
M821.377136,808.258911 
	C824.166565,820.707764 826.897827,833.219055 833.428589,844.370056 
	C840.160461,855.864441 847.340393,867.080383 858.625549,874.850403 
	C868.684753,881.776428 878.749451,888.694641 889.307251,895.957092 
	C882.880676,918.702698 881.791443,943.040649 888.187988,967.545959 
	C894.584717,992.052002 906.923828,1013.209229 924.867188,1030.904541 
	C942.748352,1048.538452 964.153381,1060.100220 988.593872,1066.253662 
	C1013.167236,1072.440430 1037.416748,1068.959961 1061.996582,1064.031006 
	C1030.763062,1100.993652 1013.093567,1142.906494 1007.695923,1190.768311 
	C1007.157654,1194.332031 1006.223145,1197.246460 1006.219604,1200.161865 
	C1006.208435,1209.335083 1006.581909,1218.508423 1006.676636,1227.682983 
	C1006.683411,1228.339478 1005.640930,1229.006836 1005.086243,1229.669067 
	C1005.350281,1230.617432 1006.080566,1231.734741 1005.807373,1232.488403 
	C1002.438354,1241.782715 997.571228,1250.420654 987.526978,1253.201050 
	C970.161194,1258.007935 952.526794,1261.862915 934.958191,1265.913818 
	C917.268066,1269.992554 899.522217,1273.829346 881.794983,1277.745972 
	C880.839417,1277.957153 879.830566,1277.927002 878.096802,1277.944946 
	C872.637329,1278.803345 867.892212,1279.577637 863.227844,1280.690674 
	C858.612000,1281.792114 854.077637,1283.235229 849.507507,1284.528564 
	C824.531128,1289.993530 799.554749,1295.458618 773.846069,1300.970459 
	C763.630920,1303.015503 754.141907,1304.985840 744.675659,1307.060181 
	C743.837891,1307.243774 743.148743,1308.105347 742.390503,1308.651978 
	C726.086731,1311.813477 709.842590,1315.344360 693.455811,1317.992065 
	C684.272583,1319.475830 674.662048,1312.155884 672.654907,1300.609741 
	C672.268494,1283.249390 672.137817,1266.631226 671.914429,1250.014282 
	C671.891663,1248.323853 671.311218,1246.641113 670.989563,1244.954712 
	C670.989563,1244.954712 670.847046,1244.720093 671.140503,1244.121338 
	C671.294006,1243.196777 671.154175,1242.870972 671.014282,1242.545288 
	C671.014282,1242.545288 670.881653,1242.227783 671.240479,1241.786621 
	C670.871765,1232.449341 670.289734,1223.537964 669.350281,1214.664307 
	C668.932007,1210.713501 667.793579,1206.838989 666.981995,1202.929810 
	C666.981995,1202.929810 666.849609,1202.687866 667.067444,1202.153076 
	C667.196777,1201.335205 667.108276,1201.052246 667.019836,1200.769287 
	C663.183228,1180.102783 658.185852,1159.717407 649.840210,1140.387573 
	C643.781189,1126.354004 637.611450,1112.236938 629.919861,1099.075073 
	C621.499756,1084.666748 612.037598,1070.702515 601.615723,1057.675903 
	C591.517090,1045.053223 579.771301,1033.722412 568.461731,1022.104004 
	C561.527588,1014.980408 553.660645,1008.747375 546.903198,1001.472900 
	C533.180359,986.699707 520.105774,971.415894 508.526337,954.777649 
	C495.777527,936.459045 484.349976,917.438721 474.607178,897.439636 
	C463.160950,873.943848 454.308258,849.381836 447.455048,824.180359 
	C443.956055,811.313477 441.666504,798.113831 438.981903,785.033447 
	C438.555847,782.957581 438.932251,780.717041 438.757996,777.712219 
	C437.348755,764.926086 436.119171,752.980408 434.922821,740.631226 
	C434.625397,738.790039 434.294678,737.352234 433.963959,735.914490 
	C433.963959,735.914490 433.850372,735.673584 434.172974,735.120361 
	C434.382080,728.361145 434.268585,722.155212 434.223724,715.728271 
	C434.292358,715.507385 434.172211,715.060425 434.268738,714.594360 
	C434.248810,710.918640 434.132355,707.709045 434.015930,704.499390 
	C434.015930,704.499390 433.846649,704.330505 434.265625,704.044983 
	C435.764374,692.615906 436.844116,681.472290 437.923859,670.328735 
	C440.294067,655.862915 442.095581,641.273804 445.196381,626.966309 
	C448.221008,613.010376 451.986694,599.145386 456.526855,585.609375 
	C460.231720,574.563660 465.197601,563.888611 470.254608,553.361511 
	C477.133942,539.041077 484.175293,524.758301 492.018463,510.954346 
	C497.678467,500.992767 504.690308,491.790894 511.228058,482.339294 
	C515.717896,475.848358 520.107605,469.245056 525.123718,463.172394 
	C531.155212,455.870331 537.695312,448.975098 544.215881,442.093933 
	C550.695435,435.256134 557.205078,428.418549 564.103943,422.014313 
	C571.201965,415.425201 578.521057,409.011658 586.221985,403.149994 
	C596.709961,395.166840 607.279297,387.173126 618.492371,380.289368 
	C632.727051,371.550568 647.348267,363.319366 662.348022,355.984009 
	C676.671265,348.979431 691.626892,343.238007 706.441833,337.282867 
	C712.523743,334.838135 718.949829,333.235962 725.255920,331.374115 
	C726.578613,330.983582 728.061462,331.135559 730.839417,330.942291 
	C703.242981,365.676300 691.708069,403.905243 698.138062,446.785095 
	C704.595642,489.849060 727.317505,522.851196 763.121277,547.311218 
	C745.505310,567.878723 734.327698,590.668823 728.607361,616.817017 
	C724.992065,631.705872 725.007812,646.216370 726.843689,660.735413 
	C727.405151,665.175476 728.866333,669.501709 729.915466,673.880066 
	C734.013123,685.355347 737.488892,697.103943 742.378723,708.231140 
	C747.548706,719.995789 754.842346,730.624390 764.123901,739.719055 
	C767.838379,743.358643 771.369690,747.199341 775.238403,750.664856 
	C786.734863,760.962830 799.221985,769.739929 813.883057,775.063110 
	C814.942383,775.447693 815.846558,776.259521 817.505493,777.218811 
	C821.143555,778.284180 820.480896,780.408020 820.511597,782.645386 
	C820.628845,791.185608 821.061951,799.721436 821.377136,808.258911 
z"/>
<path fill="#2A3340" opacity="1.000000" stroke="none" 
	d="
M902.016235,920.795837 
	C902.019592,920.608459 902.023010,920.421082 902.127197,919.781189 
	C902.227966,919.328674 902.557495,919.128723 902.557495,919.128723 
	C902.557495,919.128723 902.884949,919.329895 902.884949,919.329895 
	C903.910217,912.616577 904.935486,905.903320 905.994019,898.972229 
	C908.637512,899.479187 910.385559,899.814453 912.630737,899.849609 
	C913.425964,899.416565 913.776855,899.105896 914.014465,899.176392 
	C924.680847,902.342407 935.253662,901.480652 945.801331,898.556824 
	C945.962646,898.512085 946.328064,899.203430 946.598206,899.551331 
	C950.560059,898.082642 954.419373,896.169678 958.502686,895.227356 
	C971.594727,892.205933 982.613831,885.390869 992.322205,876.553223 
	C1000.086304,869.485474 1007.224731,861.706421 1014.353149,853.977600 
	C1016.844666,851.276306 1018.881531,847.965698 1020.401550,844.605591 
	C1022.373291,840.246826 1020.033203,836.883301 1016.448914,834.493225 
	C1012.741333,832.020935 1009.010498,832.425537 1006.224121,835.911743 
	C1002.728577,840.285217 999.666199,845.002136 996.337219,849.511902 
	C986.824341,862.398926 974.284973,871.270813 959.472107,877.067322 
	C940.433350,884.517517 921.053650,884.975891 901.462341,879.626953 
	C889.666565,876.406372 879.454468,870.386230 869.893921,862.709656 
	C856.391479,851.867981 848.119934,837.803345 842.319458,821.928406 
	C841.937134,820.882019 842.053406,819.653564 841.772461,817.742554 
	C840.719727,811.757507 839.597534,806.566650 838.992126,801.316223 
	C837.564026,788.930969 840.058411,776.930115 843.023193,765.004761 
	C846.660583,757.427246 849.342957,749.167480 854.156128,742.429871 
	C861.633972,731.962219 871.147644,723.309387 882.695251,716.997437 
	C897.656006,708.819641 913.563232,705.414673 930.467590,705.826538 
	C932.570374,705.877808 934.923340,705.782349 936.758728,704.909851 
	C944.279480,701.334473 944.427490,694.725586 936.918335,689.019531 
	C928.077515,688.491028 919.603943,688.588074 911.130371,688.685059 
	C906.462830,690.118591 901.818787,691.634399 897.123779,692.971497 
	C876.274719,698.909302 859.200012,710.533997 845.234497,726.997559 
	C837.477112,736.142639 831.667847,746.411499 827.432739,757.539734 
	C826.098206,761.046265 824.658081,761.254089 821.543701,759.965393 
	C806.577942,753.772461 793.466431,745.087708 781.831360,733.660095 
	C772.196228,724.197021 764.463135,713.530457 757.741760,702.029663 
	C755.362366,697.958374 754.033569,693.273132 752.171387,688.119263 
	C751.318115,684.708374 750.588745,682.022705 749.702087,679.390076 
	C748.509033,675.847351 747.194519,672.345520 745.932129,668.826172 
	C745.932129,668.826172 745.836975,668.661438 746.125610,668.159180 
	C745.901733,656.247437 745.389221,644.838013 744.876709,633.428589 
	C744.728882,617.696777 749.772705,603.259766 755.778625,589.021667 
	C760.546997,577.717651 767.742859,568.071350 775.594421,558.815735 
	C777.612610,556.436646 779.550842,556.177673 782.513184,557.494080 
	C796.942261,563.906006 812.061157,567.402832 827.818848,569.144104 
	C839.040344,570.384094 849.900269,569.491943 860.830933,567.744202 
	C863.309570,567.347839 865.712219,566.114563 868.000183,564.967896 
	C871.903870,563.011536 872.811768,559.817261 871.212952,555.831787 
	C869.511658,551.590515 865.806519,550.936523 861.919373,550.739685 
	C860.114624,550.648376 858.296204,550.828491 855.768555,551.133667 
	C852.967773,551.214844 850.883789,550.927063 848.796631,550.902222 
	C840.643860,550.805054 832.490173,550.791138 824.336792,550.746277 
	C816.447449,549.204102 808.325195,548.390625 800.719727,545.960205 
	C787.062622,541.595947 774.387756,534.993652 762.939636,526.213135 
	C743.080688,510.981781 728.839844,491.595428 721.039673,467.844116 
	C718.141052,459.018005 716.928101,449.638336 714.660278,439.712097 
	C714.260742,429.941010 714.147400,420.968964 714.034119,411.996887 
	C715.281494,405.604187 715.859558,398.985107 717.928040,392.870148 
	C721.295410,382.915466 725.493225,373.229340 729.602356,363.540894 
	C735.240417,350.247620 744.872009,339.746185 755.174866,330.152679 
	C764.545776,321.426849 775.186462,314.004669 787.495667,309.689026 
	C797.093933,306.323853 806.849060,303.405914 817.178894,300.237061 
	C818.731567,300.270203 819.639771,300.355499 820.548035,300.440796 
	C820.692261,300.293152 820.836548,300.145508 821.685059,299.857788 
	C833.845947,299.796112 845.302490,299.874481 856.759094,299.952850 
	C869.314392,300.658661 881.089844,304.345032 892.383362,309.608673 
	C902.488525,314.318542 912.452820,319.236633 920.931763,326.797333 
	C925.655212,331.009247 929.134705,330.658691 934.628052,327.625702 
	C939.552429,324.906921 944.673035,322.543671 950.395996,319.740143 
	C952.367737,319.183105 953.661682,318.952881 954.931702,318.628967 
	C965.742615,315.871582 976.517944,312.816711 987.873779,314.966736 
	C995.906860,316.571014 1004.095642,317.634003 1011.941040,319.890778 
	C1028.964233,324.787598 1041.477539,336.217407 1052.305908,349.643829 
	C1054.970703,352.947906 1057.728516,356.634583 1058.892090,360.600555 
	C1061.683350,370.115112 1068.519775,372.068237 1077.159180,373.054596 
	C1095.251221,375.120148 1110.811768,382.512238 1124.456177,395.080688 
	C1139.319214,408.771667 1146.406982,425.823273 1149.775513,444.933258 
	C1150.659180,449.945984 1149.948364,455.233398 1150.042114,460.393341 
	C1150.152832,466.491455 1152.253174,469.305847 1158.036743,470.699066 
	C1169.726562,473.514984 1179.931030,479.130615 1189.157593,486.716766 
	C1216.166382,508.923737 1223.268799,537.747803 1217.008545,570.906799 
	C1215.664795,578.024658 1214.746826,578.515259 1207.597778,576.847412 
	C1196.861084,574.342407 1185.958496,573.330322 1175.134399,574.874817 
	C1160.645264,576.942444 1146.908081,581.631409 1134.295288,589.366516 
	C1118.854858,598.835815 1106.980347,611.659119 1098.605469,627.576782 
	C1095.189087,634.070251 1092.587646,641.076782 1090.365356,648.087585 
	C1088.572754,653.743042 1091.489990,659.207397 1095.862671,660.392090 
	C1100.224609,661.573853 1104.667114,658.209351 1106.920044,652.474060 
	C1109.634033,645.565369 1111.984131,638.393921 1115.665771,632.013733 
	C1120.957886,622.842712 1127.291260,614.426147 1136.276001,608.122070 
	C1153.177856,596.263123 1171.649536,590.273315 1192.272583,591.996338 
	C1206.791260,593.209290 1220.322388,597.430359 1232.696777,605.653503 
	C1259.952515,623.765686 1271.290527,649.710449 1269.854858,681.440674 
	C1269.151733,696.979858 1263.374268,711.311218 1253.890869,723.954834 
	C1249.270264,730.115051 1248.005493,734.678162 1254.752319,741.375793 
	C1262.524780,749.091492 1268.782837,757.935486 1271.571777,769.129272 
	C1271.507690,769.481689 1271.535278,769.607361 1271.535278,769.607361 
	C1271.683228,769.720276 1271.831299,769.833252 1272.404907,770.453552 
	C1274.193237,780.914612 1275.556274,790.868469 1276.919189,800.822266 
	C1277.346680,820.316711 1270.356689,836.753845 1258.046265,851.833679 
	C1248.449585,863.589172 1236.600342,871.121338 1222.953979,876.680359 
	C1216.398682,879.350708 1215.421631,882.520020 1216.842896,889.756165 
	C1218.624023,898.824036 1220.680542,908.012085 1220.862305,917.183105 
	C1221.229492,935.702271 1214.730591,952.355896 1203.737793,967.104370 
	C1190.316162,985.111450 1171.754761,995.126343 1149.997314,998.730591 
	C1140.989746,1000.222778 1131.545410,998.928162 1122.324341,999.390381 
	C1120.101562,999.501770 1117.240723,1001.016052 1115.920898,1002.805420 
	C1103.935059,1019.055603 1089.183960,1032.055664 1070.909668,1040.614258 
	C1058.973022,1046.204712 1046.535156,1050.700806 1032.149658,1050.924316 
	C1022.728760,1050.877441 1014.212646,1050.929443 1005.696533,1050.981323 
	C1005.527344,1050.991699 1005.358154,1051.001953 1004.910889,1050.931641 
	C1004.632690,1050.851196 1004.335632,1050.733154 1004.335632,1050.733154 
	C999.461243,1050.145264 994.356262,1050.289795 989.753235,1048.840210 
	C971.841248,1043.199463 955.170166,1035.497192 940.763855,1022.701782 
	C924.584045,1008.331421 914.026001,990.745239 907.023621,970.795898 
	C904.658447,964.057678 904.227356,956.640564 902.737793,949.185181 
	C902.563232,948.836670 902.249023,948.674805 902.249023,948.674805 
	C902.249023,948.674805 902.281311,948.323792 902.281311,948.323792 
	C902.197937,948.154541 902.114563,947.985229 902.121399,947.162964 
	C902.146545,937.938599 902.081421,929.367188 902.016235,920.795837 
M948.040100,602.856323 
	C948.040100,602.856323 948.316895,602.898560 949.109314,602.808411 
	C958.077271,601.873352 967.045288,600.938293 976.227417,599.862244 
	C976.227417,599.862244 976.447876,599.993103 977.511353,600.480286 
	C977.864685,600.315430 978.218079,600.150513 978.641602,599.848328 
	C978.641602,599.848328 978.780701,599.914978 978.867249,600.733582 
	C984.458801,602.123779 990.050293,603.513977 996.462708,604.948242 
	C1014.039246,609.692322 1028.409424,619.657104 1038.755615,634.243652 
	C1053.125122,654.502441 1058.587524,677.378845 1053.545532,702.071899 
	C1049.027344,724.198914 1037.182495,741.783264 1018.755432,754.753906 
	C1003.851074,765.244934 986.999512,769.858337 968.866333,770.124512 
	C963.641174,770.201172 960.481812,773.021667 960.154724,777.715881 
	C959.797119,782.847717 962.437073,786.675354 967.421326,787.352722 
	C970.120605,787.719543 972.952515,787.072327 975.727051,786.928955 
	C988.970520,786.244934 1001.559326,782.878296 1013.436462,777.121765 
	C1026.291138,770.891357 1037.077026,762.076050 1046.853638,751.515503 
	C1054.955078,742.764465 1060.960571,732.867493 1065.402954,722.261292 
	C1073.581787,702.734985 1075.177979,682.417664 1069.915039,661.553101 
	C1065.904785,645.654968 1058.727539,631.406494 1048.303223,619.114868 
	C1036.361938,605.034363 1021.259338,594.913330 1003.169861,588.802856 
	C1003.119202,588.505371 1003.068604,588.207825 1003.102478,587.972839 
	C1003.102478,587.972839 1003.043396,588.059753 1002.730591,587.399414 
	C988.628052,582.291809 974.031799,580.516235 959.255127,582.532898 
	C951.215576,583.630127 943.413818,586.469116 934.889893,588.988586 
	C934.621643,589.180542 934.352417,589.371155 934.085327,589.564758 
	C929.298462,593.034485 927.629517,597.287292 929.687744,600.769287 
	C932.888977,606.185059 935.651001,606.978149 942.048157,604.438232 
	C943.409058,603.897888 944.874084,603.619934 946.639099,603.270752 
	C947.069458,603.218445 947.499817,603.166138 948.040100,602.856323 
M1131.098145,935.818420 
	C1135.246704,921.961060 1133.949097,908.487549 1127.869385,894.681763 
	C1122.338501,885.240356 1116.198120,876.305603 1107.092773,869.859741 
	C1093.206421,860.029358 1077.558838,855.610840 1060.975464,858.532043 
	C1037.697510,862.632385 1021.097595,876.101074 1012.134705,898.350708 
	C1010.009888,903.625305 1011.521179,908.687622 1015.815063,910.670288 
	C1019.770935,912.496765 1025.379517,910.013062 1027.720947,905.300476 
	C1029.473389,901.773254 1030.583252,897.804138 1032.871948,894.687317 
	C1042.769653,881.208008 1055.509277,874.038818 1073.012573,875.772156 
	C1087.029175,877.160217 1098.720703,881.877930 1107.163086,893.443970 
	C1112.568359,900.849243 1115.870972,909.244568 1115.917358,918.308594 
	C1116.011353,936.666321 1108.488281,951.054443 1092.009644,960.184265 
	C1087.976929,962.418579 1086.805298,967.742310 1089.131836,971.974548 
	C1091.220947,975.774841 1096.256592,977.823120 1099.815186,975.195801 
	C1106.662354,970.140503 1113.886230,965.077209 1119.169556,958.568726 
	C1124.385620,952.143066 1127.396606,943.927429 1131.098145,935.818420 
M959.977905,369.451477 
	C958.583069,367.438385 957.286743,365.347687 955.774292,363.427185 
	C951.764099,358.335144 945.708801,357.129425 941.427673,360.464111 
	C938.090088,363.063904 938.373230,367.783356 942.047668,373.312653 
	C944.138184,376.458496 946.200439,379.641510 948.009949,382.952850 
	C960.464417,405.744659 953.411316,430.759216 932.811646,445.140167 
	C910.592529,460.651672 876.270447,453.611877 864.392944,427.621490 
	C861.207153,420.650238 860.417053,412.499146 859.093811,404.792389 
	C858.248230,399.867981 855.568665,394.296448 849.655212,395.052246 
	C844.250916,395.742981 842.456360,397.697083 842.153381,404.419495 
	C841.229736,424.913910 849.614868,441.524017 864.299805,454.821960 
	C876.592285,465.953339 891.819519,472.054840 908.388550,470.603638 
	C921.646118,469.442444 934.491577,465.413269 945.556824,456.687744 
	C962.637207,443.219086 971.614380,425.733154 971.673828,404.380920 
	C971.707886,392.139679 968.028625,380.221252 959.977905,369.451477 
M1207.152222,800.656128 
	C1207.952026,800.077576 1208.853027,799.598694 1209.536011,798.905151 
	C1216.892212,791.436340 1222.844604,782.984497 1227.046997,773.361511 
	C1229.099121,768.662598 1227.428101,764.731079 1222.594971,762.381836 
	C1218.429077,760.356934 1213.512939,761.896118 1211.455078,766.390015 
	C1207.353394,775.347229 1202.020630,783.347046 1194.298950,789.541748 
	C1176.707886,803.654419 1157.123657,806.866882 1136.062622,799.089844 
	C1120.810669,793.457886 1109.745483,782.935181 1103.851074,767.633423 
	C1101.509521,761.554810 1098.956421,755.111694 1098.741089,748.758606 
	C1098.365723,737.676453 1100.586060,726.775269 1105.818604,716.664429 
	C1108.261597,711.943970 1106.407104,706.687012 1102.279663,704.838379 
	C1097.506470,702.700500 1092.935669,704.499634 1090.320557,709.585083 
	C1084.563599,720.779907 1081.875366,732.552368 1082.045288,745.261963 
	C1082.413696,772.844421 1094.716553,793.697449 1117.143188,808.771484 
	C1130.694092,817.879578 1145.914429,821.313171 1162.317993,819.851807 
	C1179.196655,818.348145 1194.030029,812.479309 1207.152222,800.656128 
M1118.530884,525.040588 
	C1120.122559,522.350708 1121.502197,519.504211 1123.349121,517.002930 
	C1127.453247,511.444763 1127.213257,506.786926 1122.349487,503.491028 
	C1117.145996,499.964966 1113.023071,501.345428 1109.355469,507.360107 
	C1107.145630,510.984131 1104.750854,514.630188 1101.805786,517.648254 
	C1087.149536,532.667175 1062.430298,530.216370 1050.621094,512.908875 
	C1046.680054,507.132935 1046.042969,500.752960 1045.715210,494.077240 
	C1045.322754,486.083771 1046.868042,478.892517 1052.059814,472.561981 
	C1057.467529,465.968170 1064.401001,462.273804 1072.632935,460.548370 
	C1077.022095,459.628357 1081.127563,454.957306 1080.898682,451.673279 
	C1080.649536,448.096985 1075.910767,444.363129 1071.271606,444.199463 
	C1062.910400,443.904449 1055.950806,447.943512 1049.581665,452.422424 
	C1032.927490,464.133698 1026.165039,480.675995 1028.237915,500.733887 
	C1029.419189,512.164795 1034.549927,522.097900 1042.700562,530.015015 
	C1050.798340,537.880615 1060.644165,543.276184 1072.013062,544.620117 
	C1082.001709,545.800781 1091.895874,544.702881 1100.492188,538.758057 
	C1106.510132,534.596252 1112.232178,530.006287 1118.530884,525.040588 
z"/>
<path fill="#2A3340" opacity="1.000000" stroke="none" 
	d="
M698.008911,1335.416504 
	C706.749146,1333.807373 715.489441,1332.198242 724.954224,1330.537109 
	C733.504028,1328.893311 741.329346,1327.301514 749.154663,1325.709717 
	C754.291931,1324.107178 759.349731,1322.155762 764.580627,1320.964233 
	C784.392700,1316.450928 804.276245,1312.252441 824.104370,1307.808105 
	C848.630981,1302.310303 873.102356,1296.563965 897.648987,1291.158081 
	C913.123779,1287.750244 928.692566,1284.768921 944.930481,1281.537720 
	C954.808350,1279.564453 963.974792,1277.649658 973.141296,1275.734863 
	C974.805359,1275.153564 976.469482,1274.572144 978.582214,1274.518066 
	C979.042297,1294.656128 979.053772,1314.266724 979.065247,1333.877441 
	C957.193726,1338.926636 935.341675,1344.061646 913.446472,1349.006104 
	C874.680176,1357.760498 835.888184,1366.401245 797.106201,1375.085938 
	C765.880981,1382.078491 734.654846,1389.067139 703.425293,1396.040527 
	C702.951843,1396.146240 702.429443,1396.032959 701.111084,1395.881836 
	C699.557312,1394.278198 698.195801,1392.820312 698.182373,1391.350098 
	C698.011780,1372.706665 698.035034,1354.061279 698.008911,1335.416504 
z"/>
<path fill="#2A3340" opacity="1.000000" stroke="none" 
	d="
M779.076904,1456.799805 
	C772.606506,1458.526489 766.176147,1460.427612 759.653687,1461.928101 
	C753.873779,1463.257812 748.007080,1464.237427 742.150940,1465.202881 
	C730.513184,1467.121216 720.293762,1463.498291 711.423218,1456.277222 
	C703.422119,1449.763916 699.632690,1440.433105 697.687866,1430.711182 
	C696.654480,1425.544922 697.956177,1419.911499 698.203918,1414.486816 
	C718.644470,1409.910034 738.761719,1405.400879 758.884827,1400.917969 
	C759.685364,1400.739502 760.541504,1400.810669 761.722778,1400.637695 
	C762.073792,1400.510010 762.324768,1400.165039 762.324768,1400.165039 
	C762.324768,1400.165039 762.748474,1400.207275 762.748474,1400.207275 
	C762.912781,1400.134521 763.077026,1400.061768 763.949158,1400.040771 
	C772.174255,1398.637939 779.691467,1397.183472 787.208679,1395.729004 
	C792.338867,1394.111572 797.384766,1392.119629 802.614014,1390.941895 
	C824.692993,1385.969482 846.833130,1381.270264 868.938538,1376.414429 
	C903.167480,1368.895752 937.388367,1361.340332 971.605225,1353.766724 
	C974.141479,1353.205322 976.617981,1352.374023 980.141113,1351.380981 
	C980.141113,1358.369019 980.372437,1364.620361 980.077759,1370.846680 
	C979.766541,1377.423584 979.870483,1384.223877 978.179871,1390.491455 
	C973.950500,1406.170654 962.876831,1415.404663 946.988586,1419.670898 
	C937.485901,1421.268311 928.593323,1423.132690 919.724121,1425.102051 
	C918.861389,1425.293579 918.142395,1426.132446 917.356689,1426.670898 
	C894.753235,1431.798218 872.150940,1436.930664 849.541504,1442.031494 
	C848.749634,1442.210083 847.887329,1442.076538 846.331848,1441.952881 
	C834.547363,1444.206421 823.483337,1446.570679 812.439270,1449.024658 
	C811.376892,1449.260742 810.438477,1450.054443 809.442444,1450.589233 
	C807.269104,1451.056885 805.095825,1451.524536 802.080566,1451.896484 
	C793.851440,1453.467285 786.464172,1455.133545 779.076904,1456.799805 
z"/>
<path fill="#2A3340" opacity="1.000000" stroke="none" 
	d="
M927.036926,1486.257935 
	C928.514282,1492.153198 925.140991,1496.564697 922.095947,1500.788818 
	C917.130676,1507.676636 911.043091,1513.408813 902.557800,1515.833862 
	C901.478210,1516.142334 900.268677,1515.996338 898.256104,1515.881348 
	C894.407349,1515.776611 891.421875,1515.914185 888.436279,1515.917114 
	C852.916626,1515.952393 817.396912,1515.967651 781.877258,1515.988159 
	C771.695862,1516.879395 764.531616,1511.393555 758.073059,1504.583496 
	C752.204102,1498.395752 751.375732,1490.216064 749.232178,1481.723022 
	C758.086853,1479.706787 766.703979,1477.717651 775.334045,1475.786255 
	C787.886902,1472.976807 800.447083,1470.199219 813.010193,1467.435791 
	C814.454529,1467.118164 815.937744,1466.976929 818.165527,1466.638794 
	C826.782349,1464.810791 834.636536,1463.097900 842.490662,1461.385254 
	C850.881531,1459.217285 859.232605,1456.876953 867.674194,1454.928833 
	C876.620239,1452.864136 885.652344,1451.172241 895.316650,1449.114990 
	C898.093750,1448.643433 900.224609,1448.493530 902.304260,1448.084106 
	C910.530334,1446.464111 918.740417,1444.762939 926.961304,1443.435547 
	C927.338867,1444.559570 927.711487,1445.339966 928.084045,1446.120361 
	C928.084045,1446.120361 928.139587,1446.305908 927.982849,1446.907471 
	C927.903198,1447.850586 927.980286,1448.192017 928.057434,1448.533447 
	C928.057434,1448.533447 928.144165,1448.681519 927.811279,1449.072876 
	C927.331299,1461.728760 927.184082,1473.993408 927.036926,1486.257935 
z"/>
<path fill="#A7AAAF" opacity="1.000000" stroke="none" 
	d="
M782.101562,1516.370605 
	C817.396912,1515.967651 852.916626,1515.952393 888.436279,1515.917114 
	C891.421875,1515.914185 894.407349,1515.776611 897.865479,1515.845947 
	C897.335632,1516.339722 896.333496,1516.993774 895.330627,1516.994751 
	C858.151062,1517.030640 820.971497,1517.006958 783.791870,1516.979980 
	C783.303162,1516.979614 782.814575,1516.831909 782.101562,1516.370605 
z"/>
<path fill="#C3C6CB" opacity="1.000000" stroke="none" 
	d="
M729.965332,673.458618 
	C728.866333,669.501709 727.405151,665.175476 726.843689,660.735413 
	C725.007812,646.216370 724.992065,631.705872 728.573486,617.216187 
	C728.297668,626.140259 727.022461,635.186218 727.217957,644.200317 
	C727.426880,653.828247 729.023987,663.426147 729.965332,673.458618 
z"/>
<path fill="#A7AAAF" opacity="1.000000" stroke="none" 
	d="
M842.642517,765.093872 
	C840.058411,776.930115 837.564026,788.930969 838.992126,801.316223 
	C839.597534,806.566650 840.719727,811.757507 841.761902,817.319092 
	C840.575073,813.786987 838.378418,809.977478 838.072144,806.021545 
	C837.460754,798.125427 837.340271,790.098694 838.065796,782.222473 
	C838.596252,776.462708 840.802551,770.857178 842.642517,765.093872 
z"/>
<path fill="#C3C6CB" opacity="1.000000" stroke="none" 
	d="
M1005.320190,1229.370850 
	C1005.640930,1229.006836 1006.683411,1228.339478 1006.676636,1227.682983 
	C1006.581909,1218.508423 1006.208435,1209.335083 1006.219604,1200.161865 
	C1006.223145,1197.246460 1007.157654,1194.332031 1007.458679,1191.218506 
	C1007.144348,1194.963013 1006.966064,1198.905640 1006.947693,1202.849243 
	C1006.920532,1208.662720 1007.173340,1214.482300 1006.976135,1220.288208 
	C1006.876221,1223.229004 1006.051270,1226.145142 1005.320190,1229.370850 
z"/>
<path fill="#C3C6CB" opacity="1.000000" stroke="none" 
	d="
M697.698547,1335.760254 
	C698.035034,1354.061279 698.011780,1372.706665 698.182373,1391.350098 
	C698.195801,1392.820312 699.557312,1394.278198 700.698730,1395.866211 
	C699.882996,1396.418335 698.660889,1396.846191 697.388184,1397.291626 
	C697.388184,1376.541138 697.388184,1356.322510 697.698547,1335.760254 
z"/>
<path fill="#ADB0B7" opacity="1.000000" stroke="none" 
	d="
M434.889587,741.034729 
	C436.119171,752.980408 437.348755,764.926086 438.737915,777.240234 
	C438.235565,777.005798 437.052673,776.452881 436.989349,775.792542 
	C435.906830,764.507446 434.962830,753.209045 434.252747,741.465454 
	C434.517151,741.017273 434.889587,741.034729 434.889587,741.034729 
z"/>
<path fill="#4E555B" opacity="1.000000" stroke="none" 
	d="
M979.389282,1333.619507 
	C979.053772,1314.266724 979.042297,1294.656128 979.047668,1274.586670 
	C979.356140,1274.682861 979.903320,1275.238159 979.902405,1275.792725 
	C979.871399,1294.982300 979.788635,1314.171997 979.389282,1333.619507 
z"/>
<path fill="#ADB0B7" opacity="1.000000" stroke="none" 
	d="
M809.812378,1450.582031 
	C810.438477,1450.054443 811.376892,1449.260742 812.439270,1449.024658 
	C823.483337,1446.570679 834.547363,1444.206421 845.923218,1441.940186 
	C838.406128,1444.063843 830.589050,1446.136597 822.730103,1448.036255 
	C818.585083,1449.038086 814.367249,1449.738403 809.812378,1450.582031 
z"/>
<path fill="#C3C6CB" opacity="1.000000" stroke="none" 
	d="
M671.011963,1245.426758 
	C671.311218,1246.641113 671.891663,1248.323853 671.914429,1250.014282 
	C672.137817,1266.631226 672.268494,1283.249390 672.638794,1300.199951 
	C672.238281,1299.073608 671.100891,1297.618042 671.090576,1296.154541 
	C670.972717,1279.403442 671.026367,1262.651001 671.011963,1245.426758 
z"/>
<path fill="#C3C6CB" opacity="1.000000" stroke="none" 
	d="
M666.981934,1203.378662 
	C667.793579,1206.838989 668.932007,1210.713501 669.350281,1214.664307 
	C670.289734,1223.537964 670.871765,1232.449341 671.324707,1241.636719 
	C670.032471,1231.754761 669.031311,1221.579956 667.985474,1211.409668 
	C667.724792,1208.874634 667.320312,1206.354492 666.981934,1203.378662 
z"/>
<path fill="#A7AAAF" opacity="1.000000" stroke="none" 
	d="
M437.503113,670.208984 
	C436.844116,681.472290 435.764374,692.615906 434.321228,703.939087 
	C434.612396,693.159424 435.255280,682.199341 435.967407,671.243774 
	C435.993866,670.836487 436.695435,670.473022 437.503113,670.208984 
z"/>
<path fill="#C3C6CB" opacity="1.000000" stroke="none" 
	d="
M744.461548,633.295532 
	C745.389221,644.838013 745.901733,656.247437 746.206787,668.109497 
	C744.990906,659.153564 743.864441,649.755127 743.057434,640.329224 
	C742.856750,637.985718 743.688965,635.553711 744.461548,633.295532 
z"/>
<path fill="#ADB0B7" opacity="1.000000" stroke="none" 
	d="
M821.372559,807.897400 
	C821.061951,799.721436 820.628845,791.185608 820.511597,782.645386 
	C820.480896,780.408020 821.143555,778.284180 817.829468,777.445435 
	C821.766113,777.085754 822.674866,779.235107 822.203186,784.242310 
	C821.475708,791.964539 821.603149,799.767273 821.372559,807.897400 
z"/>
<path fill="#ADB0B7" opacity="1.000000" stroke="none" 
	d="
M742.761963,1308.682983 
	C743.148743,1308.105347 743.837891,1307.243774 744.675659,1307.060181 
	C754.141907,1304.985840 763.630920,1303.015503 773.411499,1300.950439 
	C767.548218,1302.613525 761.409241,1304.427490 755.218384,1306.042969 
	C751.229309,1307.083984 747.164246,1307.833740 742.761963,1308.682983 
z"/>
<path fill="#A7AAAF" opacity="1.000000" stroke="none" 
	d="
M1277.175171,800.520874 
	C1275.556274,790.868469 1274.193237,780.914612 1272.513184,770.711060 
	C1273.830444,775.298279 1276.056396,780.030945 1276.932251,785.001465 
	C1277.804077,789.949829 1277.320435,795.137085 1277.175171,800.520874 
z"/>
<path fill="#ADB0B7" opacity="1.000000" stroke="none" 
	d="
M926.956421,1443.091797 
	C918.740417,1444.762939 910.530334,1446.464111 902.304260,1448.084106 
	C900.224609,1448.493530 898.093750,1448.643433 895.721130,1449.102783 
	C903.650269,1447.180420 911.823364,1444.978516 920.051819,1443.007446 
	C922.625000,1442.390869 925.347595,1442.397583 927.710571,1442.563354 
	C927.419434,1443.007568 926.956421,1443.091797 926.956421,1443.091797 
z"/>
<path fill="#A7AAAF" opacity="1.000000" stroke="none" 
	d="
M987.599243,314.660889 
	C976.517944,312.816711 965.742615,315.871582 954.931702,318.628967 
	C953.661682,318.952881 952.367737,319.183105 950.729492,319.543732 
	C957.097656,317.736053 963.723511,315.216309 970.575867,314.145447 
	C976.015076,313.295319 981.731445,314.218903 987.599243,314.660889 
z"/>
<path fill="#ADB0B7" opacity="1.000000" stroke="none" 
	d="
M849.879150,1284.575195 
	C854.077637,1283.235229 858.612000,1281.792114 863.227844,1280.690674 
	C867.892212,1279.577637 872.637329,1278.803345 877.682007,1277.939819 
	C868.761536,1280.206543 859.506226,1282.414307 849.879150,1284.575195 
z"/>
<path fill="#A7AAAF" opacity="1.000000" stroke="none" 
	d="
M856.533325,299.639648 
	C845.302490,299.874481 833.845947,299.796112 821.976074,299.752075 
	C830.452759,295.889191 839.806824,299.269318 848.892761,298.118286 
	C851.275085,297.816467 853.831238,298.886475 856.533325,299.639648 
z"/>
<path fill="#ADB0B7" opacity="1.000000" stroke="none" 
	d="
M917.731079,1426.673096 
	C918.142395,1426.132446 918.861389,1425.293579 919.724121,1425.102051 
	C928.593323,1423.132690 937.485901,1421.268311 946.602783,1419.633301 
	C939.882324,1421.616211 932.937927,1423.369019 925.976074,1425.049683 
	C923.373413,1425.678101 920.730164,1426.138550 917.731079,1426.673096 
z"/>
<path fill="#A7AAAF" opacity="1.000000" stroke="none" 
	d="
M824.759521,550.732178 
	C832.490173,550.791138 840.643860,550.805054 848.796631,550.902222 
	C850.883789,550.927063 852.967773,551.214844 855.332520,551.057739 
	C853.991943,551.160645 852.378784,551.923401 850.750977,551.956238 
	C843.863831,552.095215 836.970764,552.098328 830.083740,551.958923 
	C828.442200,551.925720 826.815674,551.151489 824.759521,550.732178 
z"/>
<path fill="#ADB0B7" opacity="1.000000" stroke="none" 
	d="
M972.793030,1275.579590 
	C963.974792,1277.649658 954.808350,1279.564453 945.335266,1281.726196 
	C946.254272,1281.207031 947.394165,1280.008179 948.719360,1279.745728 
	C956.604065,1278.185059 964.531616,1276.841064 972.793030,1275.579590 
z"/>
<path fill="#A7AAAF" opacity="1.000000" stroke="none" 
	d="
M946.167603,899.549927 
	C946.328064,899.203430 945.962646,898.512085 945.801331,898.556824 
	C935.253662,901.480652 924.680847,902.342407 914.014465,899.176392 
	C913.776855,899.105896 913.425964,899.416565 913.071472,899.981384 
	C921.613342,899.910400 930.208496,899.335876 938.812134,898.952698 
	C941.106995,898.850464 943.427979,899.333923 946.167603,899.549927 
z"/>
<path fill="#C3C6CB" opacity="1.000000" stroke="none" 
	d="
M911.590698,688.700928 
	C919.603943,688.588074 928.077515,688.491028 936.775146,688.709351 
	C928.683228,688.922119 920.367126,688.819519 911.590698,688.700928 
z"/>
<path fill="#A7AAAF" opacity="1.000000" stroke="none" 
	d="
M748.798462,1325.582153 
	C741.329346,1327.301514 733.504028,1328.893311 725.365234,1330.728882 
	C726.240356,1330.229126 727.347656,1329.058350 728.631226,1328.814209 
	C735.209900,1327.562988 741.834045,1326.550415 748.798462,1325.582153 
z"/>
<path fill="#C3C6CB" opacity="1.000000" stroke="none" 
	d="
M842.080322,1461.343506 
	C834.636536,1463.097900 826.782349,1464.810791 818.599731,1466.718994 
	C823.397400,1465.258301 828.473328,1463.413696 833.671265,1462.026855 
	C836.220581,1461.346924 838.996582,1461.516724 842.080322,1461.343506 
z"/>
<path fill="#4E555B" opacity="1.000000" stroke="none" 
	d="
M927.424011,1486.021484 
	C927.184082,1473.993408 927.331299,1461.728760 927.785889,1449.154907 
	C927.999268,1461.158691 927.905151,1473.471924 927.424011,1486.021484 
z"/>
<path fill="#ADB0B7" opacity="1.000000" stroke="none" 
	d="
M786.855042,1395.570312 
	C779.691467,1397.183472 772.174255,1398.637939 764.218140,1400.056763 
	C771.353210,1398.484741 778.927307,1396.948242 786.855042,1395.570312 
z"/>
<path fill="#C3C6CB" opacity="1.000000" stroke="none" 
	d="
M779.511475,1456.801025 
	C786.464172,1455.133545 793.851440,1453.467285 801.661682,1451.896240 
	C794.705139,1453.595093 787.325623,1455.198608 779.511475,1456.801025 
z"/>
<path fill="#C3C6CB" opacity="1.000000" stroke="none" 
	d="
M713.604980,412.128113 
	C714.147400,420.968964 714.260742,429.941010 714.626221,439.249756 
	C714.226440,438.210327 713.031372,436.841461 713.012939,435.456940 
	C712.909912,427.726471 713.091614,419.992249 713.604980,412.128113 
z"/>
<path fill="#ADB0B7" opacity="1.000000" stroke="none" 
	d="
M745.935181,669.254883 
	C747.194519,672.345520 748.509033,675.847351 749.702087,679.390076 
	C750.588745,682.022705 751.318115,684.708374 752.068359,687.782959 
	C749.992188,682.024841 747.965210,675.854187 745.935181,669.254883 
z"/>
<path fill="#A7AAAF" opacity="1.000000" stroke="none" 
	d="
M901.608398,920.995117 
	C902.081421,929.367188 902.146545,937.938599 902.108154,946.880249 
	C901.642151,946.771179 900.962524,946.290710 900.964172,945.812622 
	C900.993042,937.606384 901.106018,929.400452 901.608398,920.995117 
z"/>
<path fill="#ADB0B7" opacity="1.000000" stroke="none" 
	d="
M1005.914917,1051.385742 
	C1014.212646,1050.929443 1022.728760,1050.877441 1031.720947,1050.904541 
	C1031.727783,1051.348633 1031.257446,1052.033081 1030.789551,1052.031372 
	C1022.570618,1052.000732 1014.351990,1051.886353 1005.914917,1051.385742 
z"/>
<path fill="#C3C6CB" opacity="1.000000" stroke="none" 
	d="
M434.155090,715.949219 
	C434.268585,722.155212 434.382080,728.361145 434.252625,735.013672 
	C433.659241,731.281006 433.255890,727.105408 432.981537,722.921265 
	C432.851410,720.937073 432.967682,718.936646 433.292480,716.445740 
	C433.793488,715.948303 433.974274,715.948792 434.155090,715.949219 
z"/>
<path fill="#C3C6CB" opacity="1.000000" stroke="none" 
	d="
M433.663025,704.784912 
	C434.132355,707.709045 434.248810,710.918640 433.991211,714.593872 
	C433.433899,715.035156 433.250610,715.010925 433.067322,714.986755 
	C433.148254,711.681335 433.229187,708.375916 433.663025,704.784912 
z"/>
<path fill="#A7AAAF" opacity="1.000000" stroke="none" 
	d="
M434.922852,740.631226 
	C434.889587,741.034729 434.517151,741.017273 434.330811,741.012207 
	C434.098206,739.593323 434.051910,738.179626 433.984802,736.340210 
	C434.294678,737.352234 434.625397,738.790039 434.922852,740.631226 
z"/>
<path fill="#A7AAAF" opacity="1.000000" stroke="none" 
	d="
M820.228271,300.454132 
	C819.639771,300.355499 818.731567,300.270203 817.582642,300.209839 
	C818.197449,300.312347 819.053040,300.389893 820.228271,300.454132 
z"/>
<path fill="#4E555B" opacity="1.000000" stroke="none" 
	d="
M926.961304,1443.435547 
	C926.956421,1443.091797 927.419434,1443.007568 927.649536,1442.958740 
	C927.952576,1443.710449 928.025391,1444.510986 928.091187,1445.715942 
	C927.711487,1445.339966 927.338867,1444.559570 926.961304,1443.435547 
z"/>
<path fill="#ADB0B7" opacity="1.000000" stroke="none" 
	d="
M762.616089,1400.282959 
	C762.748474,1400.207275 762.324768,1400.165039 762.324768,1400.165039 
	C762.324768,1400.165039 762.073792,1400.510010 762.156616,1400.704590 
	C762.236755,1400.681152 762.318237,1400.500854 762.616089,1400.282959 
z"/>
<path fill="#A7AAAF" opacity="1.000000" stroke="none" 
	d="
M433.003296,715.243896 
	C433.250610,715.010925 433.433899,715.035156 433.894714,715.059937 
	C434.172211,715.060425 434.292358,715.507385 434.223724,715.728271 
	C433.974274,715.948792 433.793488,715.948303 433.343506,715.980713 
	C433.029266,715.842712 432.984253,715.671875 433.003296,715.243896 
z"/>
<path fill="#C3C6CB" opacity="1.000000" stroke="none" 
	d="
M670.731262,1242.751953 
	C671.154175,1242.870972 671.294006,1243.196777 671.220154,1244.009399 
	C670.820374,1243.983765 670.634277,1243.471191 670.731262,1242.751953 
z"/>
<path fill="#4E555B" opacity="1.000000" stroke="none" 
	d="
M928.385803,1448.342773 
	C927.980286,1448.192017 927.903198,1447.850586 927.944946,1446.996704 
	C928.280579,1447.040283 928.497375,1447.596191 928.385803,1448.342773 
z"/>
<path fill="#C3C6CB" opacity="1.000000" stroke="none" 
	d="
M666.714966,1200.892578 
	C667.108276,1201.052246 667.196777,1201.335205 667.148071,1202.041260 
	C666.810669,1201.981567 666.610352,1201.498657 666.714966,1200.892578 
z"/>
<path fill="#A7AAAF" opacity="1.000000" stroke="none" 
	d="
M1271.522705,769.593079 
	C1271.535278,769.607361 1271.507690,769.481689 1271.518799,769.513428 
	C1271.529785,769.545166 1271.510254,769.578796 1271.522705,769.593079 
z"/>
<path fill="#ADB0B7" opacity="1.000000" stroke="none" 
	d="
M1004.438171,1050.722412 
	C1004.335632,1050.733154 1004.632690,1050.851196 1004.681030,1050.823120 
	C1004.729370,1050.795044 1004.540710,1050.711792 1004.438171,1050.722412 
z"/>
<path fill="#A7AAAF" opacity="1.000000" stroke="none" 
	d="
M902.354553,948.399231 
	C902.281311,948.323792 902.249023,948.674805 902.249023,948.674805 
	C902.249023,948.674805 902.563232,948.836670 902.695435,948.720398 
	C902.827698,948.604126 902.427795,948.474670 902.354553,948.399231 
z"/>
<path fill="#A7AAAF" opacity="1.000000" stroke="none" 
	d="
M902.753418,919.353516 
	C902.884949,919.329895 902.557495,919.128723 902.557495,919.128723 
	C902.557495,919.128723 902.227966,919.328674 902.232910,919.520691 
	C902.295288,919.520203 902.423340,919.408325 902.753418,919.353516 
z"/>
<path fill="#000000" opacity="1.000000" stroke="none" 
	d="
M1003.695984,588.746582 
	C1021.259338,594.913330 1036.361938,605.034363 1048.303223,619.114868 
	C1058.727539,631.406494 1065.904785,645.654968 1069.915039,661.553101 
	C1075.177979,682.417664 1073.581787,702.734985 1065.402954,722.261292 
	C1060.960571,732.867493 1054.955078,742.764465 1046.853638,751.515503 
	C1037.077026,762.076050 1026.291138,770.891357 1013.436462,777.121765 
	C1001.559326,782.878296 988.970520,786.244934 975.727051,786.928955 
	C972.952515,787.072327 970.120605,787.719543 967.421326,787.352722 
	C962.437073,786.675354 959.797119,782.847717 960.154724,777.715881 
	C960.481812,773.021667 963.641174,770.201172 968.866333,770.124512 
	C986.999512,769.858337 1003.851074,765.244934 1018.755432,754.753906 
	C1037.182495,741.783264 1049.027344,724.198914 1053.545532,702.071899 
	C1058.587524,677.378845 1053.125122,654.502441 1038.755615,634.243652 
	C1028.409424,619.657104 1014.039246,609.692322 996.174744,604.538574 
	C990.184753,602.724304 984.482727,601.319641 978.780701,599.914978 
	C978.780701,599.914978 978.641602,599.848328 978.367798,599.635193 
	C977.545288,599.612427 976.996582,599.802734 976.447876,599.993042 
	C976.447876,599.993103 976.227417,599.862244 975.653442,599.996582 
	C970.618530,600.084900 966.116272,599.642639 961.708252,600.103088 
	C957.196350,600.574341 952.776855,601.929993 948.316895,602.898560 
	C948.316895,602.898560 948.040100,602.856323 947.715820,603.041748 
	C947.024719,603.225037 946.657959,603.223022 946.291138,603.220947 
	C944.874084,603.619934 943.409058,603.897888 942.048157,604.438232 
	C935.651001,606.978149 932.888977,606.185059 929.687744,600.769287 
	C927.629517,597.287292 929.298462,593.034485 934.085327,589.564758 
	C934.352417,589.371155 934.621643,589.180542 935.552246,588.796631 
	C943.881714,587.091492 951.493347,584.839355 959.230591,584.256897 
	C968.349548,583.570435 977.605896,583.939148 986.747131,584.608704 
	C992.234070,585.010498 997.614868,586.860535 1003.043396,588.059753 
	C1003.043396,588.059753 1003.102478,587.972839 1003.148438,588.101685 
	C1003.287048,588.474915 1003.454285,588.646973 1003.695984,588.746582 
z"/>
<path fill="#000000" opacity="1.000000" stroke="none" 
	d="
M960.189209,369.749512 
	C968.028625,380.221252 971.707886,392.139679 971.673828,404.380920 
	C971.614380,425.733154 962.637207,443.219086 945.556824,456.687744 
	C934.491577,465.413269 921.646118,469.442444 908.388550,470.603638 
	C891.819519,472.054840 876.592285,465.953339 864.299805,454.821960 
	C849.614868,441.524017 841.229736,424.913910 842.153381,404.419495 
	C842.456360,397.697083 844.250916,395.742981 849.655212,395.052246 
	C855.568665,394.296448 858.248230,399.867981 859.093811,404.792389 
	C860.417053,412.499146 861.207153,420.650238 864.392944,427.621490 
	C876.270447,453.611877 910.592529,460.651672 932.811646,445.140167 
	C953.411316,430.759216 960.464417,405.744659 948.009949,382.952850 
	C946.200439,379.641510 944.138184,376.458496 942.047668,373.312653 
	C938.373230,367.783356 938.090088,363.063904 941.427673,360.464111 
	C945.708801,357.129425 951.764099,358.335144 955.774292,363.427185 
	C957.286743,365.347687 958.583069,367.438385 960.189209,369.749512 
z"/>
<path fill="#000000" opacity="1.000000" stroke="none" 
	d="
M1206.796875,800.732788 
	C1194.030029,812.479309 1179.196655,818.348145 1162.317993,819.851807 
	C1145.914429,821.313171 1130.694092,817.879578 1117.143188,808.771484 
	C1094.716553,793.697449 1082.413696,772.844421 1082.045288,745.261963 
	C1081.875366,732.552368 1084.563599,720.779907 1090.320557,709.585083 
	C1092.935669,704.499634 1097.506470,702.700500 1102.279663,704.838379 
	C1106.407104,706.687012 1108.261597,711.943970 1105.818604,716.664429 
	C1100.586060,726.775269 1098.365723,737.676453 1098.741089,748.758606 
	C1098.956421,755.111694 1101.509521,761.554810 1103.851074,767.633423 
	C1109.745483,782.935181 1120.810669,793.457886 1136.062622,799.089844 
	C1157.123657,806.866882 1176.707886,803.654419 1194.298950,789.541748 
	C1202.020630,783.347046 1207.353394,775.347229 1211.455078,766.390015 
	C1213.512939,761.896118 1218.429077,760.356934 1222.594971,762.381836 
	C1227.428101,764.731079 1229.099121,768.662598 1227.046997,773.361511 
	C1222.844604,782.984497 1216.892212,791.436340 1209.536011,798.905151 
	C1208.853027,799.598694 1207.952026,800.077576 1206.796875,800.732788 
z"/>
<path fill="#000000" opacity="1.000000" stroke="none" 
	d="
M1131.375000,936.497131 
	C1127.396606,943.927429 1124.385620,952.143066 1119.169556,958.568726 
	C1113.886230,965.077209 1106.662354,970.140503 1099.815186,975.195801 
	C1096.256592,977.823120 1091.220947,975.774841 1089.131836,971.974548 
	C1086.805298,967.742310 1087.976929,962.418579 1092.009644,960.184265 
	C1108.488281,951.054443 1116.011353,936.666321 1115.917358,918.308594 
	C1115.870972,909.244568 1112.568359,900.849243 1107.163086,893.443970 
	C1098.720703,881.877930 1087.029175,877.160217 1073.012573,875.772156 
	C1055.509277,874.038818 1042.769653,881.208008 1032.871948,894.687317 
	C1030.583252,897.804138 1029.473389,901.773254 1027.720947,905.300476 
	C1025.379517,910.013062 1019.770935,912.496765 1015.815063,910.670288 
	C1011.521179,908.687622 1010.009888,903.625305 1012.134705,898.350708 
	C1021.097595,876.101074 1037.697510,862.632385 1060.975464,858.532043 
	C1077.558838,855.610840 1093.206421,860.029358 1107.092773,869.859741 
	C1116.198120,876.305603 1122.338501,885.240356 1127.989990,895.395630 
	C1128.074829,896.929932 1127.741943,897.888672 1128.049316,898.549683 
	C1131.407593,905.772278 1132.337402,913.369690 1131.910278,921.236877 
	C1131.634521,926.318359 1131.546875,931.410034 1131.375000,936.497131 
z"/>
<path fill="#000000" opacity="1.000000" stroke="none" 
	d="
M1118.308594,525.324097 
	C1112.232178,530.006287 1106.510132,534.596252 1100.492188,538.758057 
	C1091.895874,544.702881 1082.001709,545.800781 1072.013062,544.620117 
	C1060.644165,543.276184 1050.798340,537.880615 1042.700562,530.015015 
	C1034.549927,522.097900 1029.419189,512.164795 1028.237915,500.733887 
	C1026.165039,480.675995 1032.927490,464.133698 1049.581665,452.422424 
	C1055.950806,447.943512 1062.910400,443.904449 1071.271606,444.199463 
	C1075.910767,444.363129 1080.649536,448.096985 1080.898682,451.673279 
	C1081.127563,454.957306 1077.022095,459.628357 1072.632935,460.548370 
	C1064.401001,462.273804 1057.467529,465.968170 1052.059814,472.561981 
	C1046.868042,478.892517 1045.322754,486.083771 1045.715210,494.077240 
	C1046.042969,500.752960 1046.680054,507.132935 1050.621094,512.908875 
	C1062.430298,530.216370 1087.149536,532.667175 1101.805786,517.648254 
	C1104.750854,514.630188 1107.145630,510.984131 1109.355469,507.360107 
	C1113.023071,501.345428 1117.145996,499.964966 1122.349487,503.491028 
	C1127.213257,506.786926 1127.453247,511.444763 1123.349121,517.002930 
	C1121.502197,519.504211 1120.122559,522.350708 1118.308594,525.324097 
z"/>
<path fill="#ADB0B7" opacity="1.000000" stroke="none" 
	d="
M1002.886963,587.729614 
	C997.614868,586.860535 992.234070,585.010498 986.747131,584.608704 
	C977.605896,583.939148 968.349548,583.570435 959.230591,584.256897 
	C951.493347,584.839355 943.881714,587.091492 935.859619,588.563599 
	C943.413818,586.469116 951.215576,583.630127 959.255127,582.532898 
	C974.031799,580.516235 988.628052,582.291809 1002.886963,587.729614 
z"/>
<path fill="#ADB0B7" opacity="1.000000" stroke="none" 
	d="
M1131.236572,936.157776 
	C1131.546875,931.410034 1131.634521,926.318359 1131.910278,921.236877 
	C1132.337402,913.369690 1131.407593,905.772278 1128.049316,898.549683 
	C1127.741943,897.888672 1128.074829,896.929932 1128.177490,895.717041 
	C1133.949097,908.487549 1135.246704,921.961060 1131.236572,936.157776 
z"/>
<path fill="#A7AAAF" opacity="1.000000" stroke="none" 
	d="
M948.713135,602.853516 
	C952.776855,601.929993 957.196350,600.574341 961.708252,600.103088 
	C966.116272,599.642639 970.618530,600.084900 975.546387,600.067078 
	C967.045288,600.938293 958.077271,601.873352 948.713135,602.853516 
z"/>
<path fill="#A7AAAF" opacity="1.000000" stroke="none" 
	d="
M978.823975,600.324280 
	C984.482727,601.319641 990.184753,602.724304 995.764282,604.516602 
	C990.050293,603.513977 984.458801,602.123779 978.823975,600.324280 
z"/>
<path fill="#A7AAAF" opacity="1.000000" stroke="none" 
	d="
M946.465088,603.245850 
	C946.657959,603.223022 947.024719,603.225037 947.660889,603.170532 
	C947.499817,603.166138 947.069458,603.218445 946.465088,603.245850 
z"/>
<path fill="#A7AAAF" opacity="1.000000" stroke="none" 
	d="
M976.979614,600.236694 
	C976.996582,599.802734 977.545288,599.612427 978.332703,599.703857 
	C978.218079,600.150513 977.864685,600.315430 976.979614,600.236694 
z"/>
<path fill="#ADB0B7" opacity="1.000000" stroke="none" 
	d="
M1003.432922,588.774719 
	C1003.454285,588.646973 1003.287048,588.474915 1003.106140,588.070435 
	C1003.068604,588.207825 1003.119202,588.505371 1003.432922,588.774719 
z"/>
</svg>